<svg xmlns="http://www.w3.org/2000/svg" xmlns:xlink="http://www.w3.org/1999/xlink" version="1.1" width="256" height="256" viewBox="0 0 256 256" xml:space="preserve">
<g style="stroke: none; stroke-width: 0; stroke-dasharray: none; stroke-linecap: butt; stroke-linejoin: miter; stroke-miterlimit: 10; fill: none; fill-rule: nonzero; opacity: 1;" transform="translate(1.4065934065934016 1.4065934065934016) scale(2.81 2.81)">
	<path d="M 47.451 13.342 L 47.451 13.342 c -1.006 0 -1.906 0.56 -2.351 1.461 l -8.471 17.165 c -0.071 0.144 -0.209 0.243 -0.367 0.266 l -18.943 2.753 c -0.995 0.145 -1.805 0.828 -2.116 1.784 c -0.311 0.956 -0.057 1.986 0.663 2.688 L 29.572 52.82 c 0.115 0.112 0.168 0.273 0.14 0.431 l -3.236 18.865 c -0.17 0.991 0.23 1.974 1.043 2.564 c 0.812 0.591 1.871 0.667 2.762 0.201 l 16.943 -8.908 c 0.071 -0.037 0.148 -0.055 0.226 -0.055 C 52.287 50.671 51.265 32.664 47.451 13.342 z" style="stroke: none; stroke-width: 1; stroke-dasharray: none; stroke-linecap: butt; stroke-linejoin: miter; stroke-miterlimit: 10; fill: rgb(255,203,104); fill-rule: nonzero; opacity: 1;" transform=" matrix(1 0 0 1 0 0) " stroke-linecap="round"/>
	<path d="M 47.451 13.342 L 47.451 13.342 c 1.006 0 1.906 0.56 2.351 1.461 l 8.471 17.165 c 0.071 0.144 0.209 0.243 0.367 0.266 l 18.942 2.753 c 0.995 0.145 1.805 0.828 2.116 1.784 c 0.311 0.956 0.057 1.986 -0.663 2.688 L 65.329 52.82 c -0.115 0.112 -0.168 0.273 -0.14 0.431 l 3.236 18.865 c 0.17 0.991 -0.23 1.974 -1.043 2.564 c -0.812 0.591 -1.871 0.667 -2.762 0.201 l -16.943 -8.908 c -0.071 -0.037 -0.148 -0.055 -0.226 -0.055 C 41.752 51.166 43.025 33.036 47.451 13.342 z" style="stroke: none; stroke-width: 1; stroke-dasharray: none; stroke-linecap: butt; stroke-linejoin: miter; stroke-miterlimit: 10; fill: rgb(255,218,119); fill-rule: nonzero; opacity: 1;" transform=" matrix(1 0 0 1 0 0) " stroke-linecap="round"/>
	<ellipse cx="34.575" cy="47.897999999999996" rx="3.145" ry="4.318" style="stroke: none; stroke-width: 1; stroke-dasharray: none; stroke-linecap: butt; stroke-linejoin: miter; stroke-miterlimit: 10; fill: rgb(255,135,152); fill-rule: nonzero; opacity: 1;" transform=" matrix(0.5 -0.866 0.866 0.5 -24.1936 53.8895) "/>
	<ellipse cx="60.327999999999996" cy="47.895" rx="4.318" ry="3.145" style="stroke: none; stroke-width: 1; stroke-dasharray: none; stroke-linecap: butt; stroke-linejoin: miter; stroke-miterlimit: 10; fill: rgb(255,135,152); fill-rule: nonzero; opacity: 1;" transform=" matrix(0.866 -0.5 0.5 0.866 -15.866 36.5812) "/>
	<path d="M 47.451 55.406 c -3.094 0 -5.967 -1.544 -7.684 -4.129 c -0.458 -0.69 -0.271 -1.621 0.42 -2.08 c 0.689 -0.456 1.621 -0.27 2.079 0.42 c 1.16 1.746 3.098 2.789 5.185 2.789 c 2.086 0 4.023 -1.042 5.183 -2.789 c 0.46 -0.689 1.39 -0.876 2.08 -0.42 c 0.689 0.458 0.878 1.39 0.42 2.08 C 53.417 53.862 50.545 55.406 47.451 55.406 z" style="stroke: none; stroke-width: 1; stroke-dasharray: none; stroke-linecap: butt; stroke-linejoin: miter; stroke-miterlimit: 10; fill: rgb(63,70,72); fill-rule: nonzero; opacity: 1;" transform=" matrix(1 0 0 1 0 0) " stroke-linecap="round"/>
	<path d="M 36.781 45.718 c -0.829 0 -1.5 -0.671 -1.5 -1.5 v -2.421 c 0 -0.829 0.671 -1.5 1.5 -1.5 s 1.5 0.671 1.5 1.5 v 2.421 C 38.281 45.046 37.609 45.718 36.781 45.718 z" style="stroke: none; stroke-width: 1; stroke-dasharray: none; stroke-linecap: butt; stroke-linejoin: miter; stroke-miterlimit: 10; fill: rgb(63,70,72); fill-rule: nonzero; opacity: 1;" transform=" matrix(1 0 0 1 0 0) " stroke-linecap="round"/>
	<path d="M 58.121 45.718 c -0.828 0 -1.5 -0.671 -1.5 -1.5 v -2.421 c 0 -0.829 0.672 -1.5 1.5 -1.5 s 1.5 0.671 1.5 1.5 v 2.421 C 59.621 45.046 58.949 45.718 58.121 45.718 z" style="stroke: none; stroke-width: 1; stroke-dasharray: none; stroke-linecap: butt; stroke-linejoin: miter; stroke-miterlimit: 10; fill: rgb(63,70,72); fill-rule: nonzero; opacity: 1;" transform=" matrix(1 0 0 1 0 0) " stroke-linecap="round"/>
	<path d="M 8.11 69.464 l -0.587 -1.987 c -0.017 -0.057 -0.035 -0.111 -0.057 -0.166 c -0.105 -0.264 -0.239 -0.547 -0.388 -0.819 c -0.165 -0.3 -0.352 -0.59 -0.557 -0.863 c -0.205 -0.272 -0.431 -0.533 -0.674 -0.776 c -0.242 -0.242 -0.503 -0.468 -0.776 -0.673 c -0.272 -0.204 -0.562 -0.392 -0.863 -0.558 c -0.299 -0.165 -0.613 -0.31 -0.932 -0.43 l -2.038 -0.602 c -1.65 -0.487 -1.65 -2.824 0 -3.312 l 1.987 -0.587 c 0.056 -0.017 0.11 -0.034 0.165 -0.056 c 0.264 -0.105 0.548 -0.238 0.82 -0.388 c 0.301 -0.166 0.591 -0.354 0.863 -0.558 c 0.273 -0.205 0.534 -0.432 0.776 -0.673 c 0.242 -0.243 0.469 -0.504 0.673 -0.776 c 0.205 -0.273 0.393 -0.564 0.558 -0.863 c 0.165 -0.299 0.31 -0.613 0.43 -0.932 l 0.602 -2.038 c 0.487 -1.65 2.824 -1.65 3.312 0 l 0.587 1.986 c 0.017 0.057 0.035 0.111 0.057 0.166 c 0.106 0.265 0.239 0.549 0.388 0.819 c 0.164 0.299 0.352 0.589 0.558 0.863 c 0.204 0.272 0.431 0.533 0.673 0.776 c 0.242 0.242 0.503 0.468 0.776 0.673 c 0.272 0.204 0.562 0.392 0.863 0.558 c 0.3 0.165 0.614 0.31 0.932 0.43 l 2.038 0.602 c 1.65 0.487 1.65 2.824 0 3.312 l -1.985 0.586 c -0.057 0.017 -0.111 0.035 -0.166 0.057 c -0.264 0.105 -0.547 0.238 -0.819 0.388 c -0.301 0.166 -0.591 0.354 -0.863 0.558 c -0.273 0.205 -0.534 0.432 -0.776 0.673 c -0.243 0.243 -0.469 0.504 -0.673 0.776 c -0.206 0.274 -0.393 0.564 -0.558 0.863 c -0.162 0.294 -0.305 0.602 -0.425 0.917 l -0.607 2.055 C 10.935 71.113 8.598 71.113 8.11 69.464 z" style="stroke: none; stroke-width: 1; stroke-dasharray: none; stroke-linecap: butt; stroke-linejoin: miter; stroke-miterlimit: 10; fill: rgb(255,218,119); fill-rule: nonzero; opacity: 1;" transform=" matrix(1 0 0 1 0 0) " stroke-linecap="round"/>
	<path d="M 68.398 22.58 l -0.482 -1.633 c -0.014 -0.047 -0.029 -0.091 -0.047 -0.136 c -0.087 -0.217 -0.196 -0.45 -0.319 -0.673 c -0.135 -0.246 -0.289 -0.485 -0.458 -0.709 c -0.168 -0.224 -0.354 -0.438 -0.553 -0.638 c -0.199 -0.199 -0.413 -0.385 -0.638 -0.553 c -0.223 -0.168 -0.462 -0.322 -0.709 -0.458 c -0.246 -0.135 -0.504 -0.255 -0.766 -0.354 l -1.674 -0.494 c -1.356 -0.4 -1.356 -2.32 0 -2.721 l 1.632 -0.482 c 0.046 -0.014 0.09 -0.028 0.135 -0.046 c 0.217 -0.086 0.45 -0.195 0.674 -0.319 c 0.247 -0.136 0.486 -0.291 0.709 -0.458 c 0.224 -0.168 0.439 -0.355 0.638 -0.553 c 0.199 -0.199 0.385 -0.414 0.553 -0.638 c 0.169 -0.225 0.323 -0.463 0.458 -0.709 c 0.136 -0.246 0.255 -0.504 0.354 -0.766 l 0.494 -1.675 c 0.4 -1.356 2.32 -1.356 2.721 0 l 0.482 1.631 c 0.014 0.047 0.029 0.091 0.047 0.137 c 0.087 0.218 0.196 0.451 0.319 0.673 c 0.135 0.246 0.289 0.484 0.458 0.709 c 0.168 0.224 0.354 0.438 0.553 0.638 c 0.199 0.199 0.413 0.385 0.638 0.553 c 0.223 0.168 0.462 0.322 0.709 0.458 c 0.247 0.136 0.504 0.255 0.766 0.353 l 1.675 0.494 c 1.356 0.4 1.356 2.32 0 2.721 l -1.631 0.482 c -0.047 0.014 -0.091 0.029 -0.137 0.047 c -0.217 0.087 -0.45 0.196 -0.673 0.319 c -0.247 0.136 -0.486 0.291 -0.709 0.458 c -0.224 0.168 -0.439 0.355 -0.638 0.553 c -0.199 0.199 -0.385 0.414 -0.553 0.637 c -0.169 0.225 -0.323 0.463 -0.458 0.709 c -0.133 0.241 -0.25 0.495 -0.349 0.754 l -0.499 1.689 C 70.718 23.935 68.798 23.935 68.398 22.58 z" style="stroke: none; stroke-width: 1; stroke-dasharray: none; stroke-linecap: butt; stroke-linejoin: miter; stroke-miterlimit: 10; fill: rgb(255,218,119); fill-rule: nonzero; opacity: 1;" transform=" matrix(1 0 0 1 0 0) " stroke-linecap="round"/>
	<path d="M 81.633 72.072 l -0.43 -1.456 c -0.012 -0.042 -0.025 -0.081 -0.042 -0.122 c -0.077 -0.194 -0.175 -0.401 -0.284 -0.6 c -0.121 -0.22 -0.258 -0.432 -0.408 -0.632 c -0.15 -0.2 -0.316 -0.391 -0.493 -0.568 c -0.177 -0.177 -0.368 -0.343 -0.568 -0.493 c -0.199 -0.15 -0.412 -0.287 -0.632 -0.409 c -0.219 -0.121 -0.449 -0.227 -0.683 -0.315 l -1.493 -0.441 c -1.209 -0.357 -1.209 -2.069 0 -2.426 l 1.455 -0.43 c 0.041 -0.012 0.081 -0.025 0.121 -0.041 c 0.193 -0.077 0.401 -0.174 0.601 -0.284 c 0.22 -0.121 0.433 -0.259 0.632 -0.409 c 0.2 -0.15 0.391 -0.316 0.568 -0.493 c 0.178 -0.178 0.344 -0.369 0.493 -0.568 c 0.15 -0.2 0.288 -0.413 0.408 -0.632 c 0.121 -0.219 0.227 -0.449 0.315 -0.683 l 0.441 -1.493 c 0.357 -1.209 2.069 -1.209 2.426 0 l 0.43 1.455 c 0.012 0.042 0.026 0.081 0.042 0.122 c 0.078 0.194 0.175 0.402 0.284 0.6 c 0.12 0.219 0.258 0.432 0.409 0.632 c 0.15 0.2 0.315 0.391 0.493 0.568 c 0.177 0.177 0.368 0.343 0.568 0.493 c 0.199 0.15 0.412 0.287 0.632 0.409 c 0.22 0.121 0.45 0.227 0.683 0.315 l 1.493 0.441 c 1.209 0.357 1.209 2.069 0 2.426 l -1.454 0.43 c -0.042 0.012 -0.081 0.026 -0.122 0.042 c -0.193 0.077 -0.401 0.175 -0.6 0.284 c -0.22 0.121 -0.433 0.259 -0.632 0.409 c -0.2 0.15 -0.391 0.316 -0.568 0.493 c -0.178 0.178 -0.344 0.369 -0.493 0.568 c -0.151 0.201 -0.288 0.413 -0.408 0.632 c -0.118 0.215 -0.223 0.441 -0.311 0.672 l -0.445 1.506 C 83.702 73.28 81.99 73.28 81.633 72.072 z" style="stroke: none; stroke-width: 1; stroke-dasharray: none; stroke-linecap: butt; stroke-linejoin: miter; stroke-miterlimit: 10; fill: rgb(255,218,119); fill-rule: nonzero; opacity: 1;" transform=" matrix(1 0 0 1 0 0) " stroke-linecap="round"/>
	<path d="M 23.674 26.055 c -0.829 0 -1.5 -0.671 -1.5 -1.5 V 18.2 c 0 -0.829 0.671 -1.5 1.5 -1.5 s 1.5 0.671 1.5 1.5 v 6.354 C 25.174 25.383 24.502 26.055 23.674 26.055 z" style="stroke: none; stroke-width: 1; stroke-dasharray: none; stroke-linecap: butt; stroke-linejoin: miter; stroke-miterlimit: 10; fill: rgb(255,218,119); fill-rule: nonzero; opacity: 1;" transform=" matrix(1 0 0 1 0 0) " stroke-linecap="round"/>
	<path d="M 26.851 22.877 h -6.354 c -0.829 0 -1.5 -0.671 -1.5 -1.5 s 0.671 -1.5 1.5 -1.5 h 6.354 c 0.829 0 1.5 0.671 1.5 1.5 S 27.68 22.877 26.851 22.877 z" style="stroke: none; stroke-width: 1; stroke-dasharray: none; stroke-linecap: butt; stroke-linejoin: miter; stroke-miterlimit: 10; fill: rgb(255,218,119); fill-rule: nonzero; opacity: 1;" transform=" matrix(1 0 0 1 0 0) " stroke-linecap="round"/>
	<path d="M 47.729 83.952 c -0.828 0 -1.5 -0.672 -1.5 -1.5 v -6.354 c 0 -0.828 0.672 -1.5 1.5 -1.5 s 1.5 0.672 1.5 1.5 v 6.354 C 49.229 83.28 48.558 83.952 47.729 83.952 z" style="stroke: none; stroke-width: 1; stroke-dasharray: none; stroke-linecap: butt; stroke-linejoin: miter; stroke-miterlimit: 10; fill: rgb(255,218,119); fill-rule: nonzero; opacity: 1;" transform=" matrix(1 0 0 1 0 0) " stroke-linecap="round"/>
	<path d="M 50.907 80.774 h -6.354 c -0.829 0 -1.5 -0.672 -1.5 -1.5 s 0.671 -1.5 1.5 -1.5 h 6.354 c 0.828 0 1.5 0.672 1.5 1.5 S 51.735 80.774 50.907 80.774 z" style="stroke: none; stroke-width: 1; stroke-dasharray: none; stroke-linecap: butt; stroke-linejoin: miter; stroke-miterlimit: 10; fill: rgb(255,218,119); fill-rule: nonzero; opacity: 1;" transform=" matrix(1 0 0 1 0 0) " stroke-linecap="round"/>
</g>
</svg>